<svg xmlns="http://www.w3.org/2000/svg" viewBox="0 0 24 24">
  <rect width="24" height="24" rx="4" fill="#0a0a0c"/>
  <rect x=".5" y=".5" width="23" height="23" rx="3.5" fill="none" stroke="#6b5a22" stroke-width="1"/>
  <g fill="none" stroke="#c9a227" stroke-width="1.3" stroke-linecap="round" stroke-linejoin="round">
    <path d="M12 4.4c.85 0 1.5.7 1.5 1.55S12.85 7.5 12 7.5s-1.5-.7-1.5-1.55S11.15 4.4 12 4.4z"/>
    <path d="M12 7.6c2.6 2 5.7 2.5 9.2 1.9-2.6 1.2-4.2 2.9-4.5 5.1C14.9 13 13.5 12.7 12 12.7s-2.9.3-4.7 1.9C7 12.4 5.4 10.7 2.8 9.5 6.3 10.1 9.4 9.6 12 7.6z"/>
    <path d="M12 12.7v6.9M9.4 16l2.6 3.6L14.6 16"/>
  </g>
</svg>
